<?xml version="1.0" encoding="utf-8"?>
<!-- Generator: Adobe Illustrator 16.0.0, SVG Export Plug-In . SVG Version: 6.00 Build 0)  -->
<!DOCTYPE svg PUBLIC "-//W3C//DTD SVG 1.1//EN" "http://www.w3.org/Graphics/SVG/1.1/DTD/svg11.dtd" [
	<!ENTITY ns_flows "http://ns.adobe.com/Flows/1.0/">
	<!ENTITY ns_extend "http://ns.adobe.com/Extensibility/1.0/">
	<!ENTITY ns_ai "http://ns.adobe.com/AdobeIllustrator/10.0/">
	<!ENTITY ns_graphs "http://ns.adobe.com/Graphs/1.0/">
]>
<svg version="1.1" id="圖層_1" xmlns:x="&ns_extend;" xmlns:i="&ns_ai;" xmlns:graph="&ns_graphs;"
	 xmlns="http://www.w3.org/2000/svg" xmlns:xlink="http://www.w3.org/1999/xlink" xmlns:a="http://ns.adobe.com/AdobeSVGViewerExtensions/3.0/"
	 x="0px" y="0px" width="213px" height="48px" viewBox="141.64 148.946 213 48" enable-background="new 141.64 148.946 213 48"
	 xml:space="preserve">
<g>
	<g>
		<g>
			<path fill="#E50012" d="M156.722,152.606c0,0,0,4.903,0,7.127c-1.201,1.202-2.634,2.633-3.833,3.839c-2.223,0-7.13,0-7.13,0v8.26
				h10.553l8.672-8.668v-10.558H156.722z"/>
			<path fill="#E50012" d="M167.924,152.606v10.558l8.679,8.668h10.554v-8.26c0,0-4.902,0-7.13,0
				c-1.194-1.206-2.633-2.636-3.83-3.839c0-2.224,0-7.127,0-7.127H167.924z"/>
		</g>
		<g>
			<path fill="#E50012" d="M154.605,175.237h-8.846v8.262c0,0,4.907,0,7.129,0c1.2,1.196,2.632,2.638,3.834,3.838
				c0,2.229,0,7.129,0,7.129h8.263v-10.557l-8.672-8.672H154.605z"/>
			<path fill="#E50012" d="M178.316,175.237h-1.715l-8.679,8.672v10.556h8.271c0,0,0-4.899,0-7.129
				c1.199-1.199,2.637-2.642,3.83-3.837c2.229,0,7.13,0,7.13,0v-8.263L178.316,175.237L178.316,175.237z"/>
		</g>
	</g>
	<g>
		<path fill="#262780" d="M249.114,167.731c0,0.003,0,0.003,0,0.007l0.017,0.016L249.114,167.731z"/>
		<path fill="#262780" d="M266.566,170.354c-0.371-0.673-0.976-1.584-1.886-1.91c-0.987-0.361-2.072-0.325-3.063-0.146
			c-0.735,0.136-2.371,1.572-3.085,0.846c-0.009-0.007-0.024-0.013-0.024-0.032c0.038-0.132,0.56-0.071,0.668-0.173
			c0.241-0.226,0.37-1.131,0.438-1.459c0.318-1.505,1.034-5.332,1.102-5.989c0.24-2.476-0.754-2.381-1.093-3.287
			c0.225-0.075,0.501-0.116,0.75-0.19c0.408-0.116,0.879,0.047,1.289,0.142c0.838-0.058,1.762-0.485,2.035-1.316l0.033-0.266
			c-0.201-0.5-0.844-0.81-1.261-0.996c-0.554-0.055-1.183,0.152-1.812,0.135c-0.711-0.056-1.171,0.349-1.759,0.4
			c-0.154,0.086-0.397,0.021-0.587,0.104c-0.063-0.034-0.1-0.126-0.092-0.171c-0.039-0.15,0.146-0.096,0.179-0.208
			c0.105-0.51,0.041-1.213-0.357-1.681c-0.303-0.401-0.763-0.797-1.147-1.082l-0.051-0.001c-0.437-0.357-0.937-0.518-1.396-0.796
			c-0.104-0.021-0.209-0.087-0.313-0.025c-0.241-0.15-0.542-0.049-0.782-0.176c-0.399,0.163-0.793,0.328-1.136,0.442
			c-0.208,0.017-0.522,0.075-0.737,0.039c-0.309-0.052-1.174,0.767-1.289,1.033c-0.209,0.463-0.051,1.338,0.154,1.782
			c0.209,0.465,0.588,0.854,1.086,1.07c0.171,0.076,1.797,0.301,1.605,0.796l-0.02,0.057c0.115-0.07,0.039,0.16,0.187,0.111
			c-0.835,0.246-1.623,0.613-2.451,0.88c-0.803,0.267-1.641,0.288-2.447,0.524c-0.649,0.192-1.302,0.095-1.884,0.5
			c-0.323,0.227-0.23,0.665-0.509,0.851c0.022,0.027,0.046,0.069,0.063,0.092c-0.244,0.282,0.292,0.704,0.458,0.846
			c1.028,0.862,2.019-0.301,3.017-0.297c0.186,0.525,0.047,1.115,0.086,1.657c0.042,0.654,0.106,1.302,0.134,1.961
			c0.032,0.717,0.044,1.437,0.056,2.149c0.008,0.677-0.016,2.307,0.732,2.68c0.346,0.17,0.702,0.25,1.068,0.13
			c0.187-0.304,0.527-0.455,0.596-0.781l0.016,0.019l0.017-0.285h0.021l-0.002-0.146c0.062-0.248-0.07-0.441,0.006-0.701
			c0.024-0.461-0.02-0.873,0.46-0.992c0.24-0.06,0.836-0.145,1.041-0.053c0.509-0.512,1.229-0.611,1.861-0.916
			c0.135-0.06,0.103,0.904,0.103,0.976c0,0.296-0.149,0.453-0.256,0.71c-0.091,0.225-0.086,0.479-0.183,0.709
			c-0.233,0.543-0.761,1.164-1.218,1.54c-0.287,0.238-1.065,0.057-1.428,0.126c-0.588,0.104-1.177,0.339-1.792,0.427
			c-0.227,0.041-0.521,0.035-0.704,0.063c-0.069,0.008-0.188-0.139-0.288-0.13c-0.137,0.01-0.151,0.182-0.221,0.197
			c-0.835,0.2-2.398,0.831-1.965,1.947c0.302,0.782,1.29,0.978,2.013,1.007c-0.096,1.746-0.188,3.722,0.737,5.34
			c0.976,1.697,1.615,0.651,2.216-0.525c1.255,0.887,2.299,0.959,3.691,0.533c0.601-0.188,2.63-0.612,2.328-1.534
			c-0.285-0.897-2.383-0.549-1.572-1.579c0.49-0.623,2.845-1.901,1.052-2.774c-0.76-0.369-1.734-0.012-2.509,0.043
			c-0.88,0.051-1.584-0.184-2.354-0.65c1.396-0.321,2.783-0.668,4.183-0.969c0.828-0.175,1.708-0.576,2.548-0.102
			c0.363,0.199,0.724,0.384,0.813,0.882c0.264,1.476-0.74,4.319-1.115,5.098c-0.274,0.579-0.115,1.025-1.022,1.654
			c-0.557,0.404-0.969-0.005-1.656,0.249c0.252,0.688,0.624,1.647,1.066,2.161c0.454,0.529,0.605,0.979,1.475,0.908
			c0.944-0.074,1.803-0.469,2.269-0.795c0.7-0.497,2.008-1.658,2.377-2.339C265.663,177.712,267.924,172.834,266.566,170.354
			 M253.513,175.168c1.087-0.847,3.378-1.344,3.4-1.257c0,0.007,0.026,0.058,0.026,0.058c-0.328,0.757-0.864,1.545-1.578,1.977
			c-0.483-0.188-0.944,0.147-1.233,0.422c-0.146,0.251-0.276,0.54-0.315,0.842c-0.166-0.043-0.355-0.06-0.459-0.229
			c-0.017-0.014,0.12-0.063,0.072-0.143c-0.131-0.177-0.322-0.296-0.403-0.479C252.821,175.913,253.067,175.512,253.513,175.168
			 M256.617,163.916c-0.015,0.094-0.042,0.142-0.078,0.123c-0.649-0.296-1.364-0.165-2.053-0.23
			c-0.222-0.024-0.738-0.047-0.896-0.238c-0.114-0.152-0.085-0.466,0.107-0.563c0.112-0.054,0.438,0,0.581-0.022
			c0.216-0.036,0.436-0.098,0.655-0.125c0.419-0.055,0.965-0.069,1.247-0.402c0.496-0.062,0.233-0.776,0.179-1.059
			c-0.036-0.197-0.641-0.393-0.821-0.399c-0.256-0.015-0.43-0.063-0.667-0.151c-0.171-0.061-0.308-0.11-0.469-0.204
			c-0.286-0.159-0.336-0.108-0.522-0.409c-0.033-0.057-0.436-0.69-0.396-0.701c0.705-0.232,1.415-0.379,2.123-0.606
			c0.618-0.202,0.496,0.174,0.614,0.632c0.11,0.425,0.242,0.817,0.27,1.255c0.028,0.47,0.011,0.938,0.052,1.41
			C256.595,162.771,256.705,163.368,256.617,163.916z"/>
		<path fill="#262780" d="M249.021,177.867c0.089-0.149-0.172-0.308-0.128-0.496c-0.143-0.224-0.233-0.555-0.287-0.838
			c-0.033-0.28-0.069-0.475-0.104-0.766c0.017-0.261-0.092-0.518-0.104-0.791c-0.021-0.058-0.079-0.13-0.059-0.198l-0.054-0.057
			c0.01-0.153-0.021-0.349-0.006-0.513c-0.088-0.305,0-0.595-0.057-0.904c-0.019-0.264,0.154-0.552,0.091-0.836
			c-0.105-0.111-0.195-0.262-0.178-0.403c-0.09-0.007-0.09-0.119-0.132-0.174c-0.063-0.174-0.119-0.326-0.192-0.525
			c0.05-0.147-0.198-0.33-0.17-0.513c-0.116-0.042-0.243-0.184-0.378-0.168c-0.327-0.28-0.737-0.058-1.087-0.286
			c-0.245,0.061-0.425,0.281-0.537,0.472c-0.495,0.808-0.219,1.786-0.135,2.671c0.073,0.78,0.3,1.444,0.553,2.173
			c0.368,1.08,0.815,5.611,2.783,5.025c0.547-0.175,0.786-0.82,0.791-1.311c-0.028-0.431-0.249-0.841-0.401-1.189
			C249.032,178.185,249.279,177.905,249.021,177.867z"/>
		<path fill="#262780" d="M272.423,162.636c0.489,0.437,1.08,0.787,1.6,1.185c0.958,0.744,2.101,1.653,2.101,1.653
			c-0.153,0.236-2.223,2.597-2.914,3.553c-0.535,0.745-1.053,1.814-1.021,2.745c0.058,1.514,1.229,1.267,2.285,0.851
			c0.854-0.335,1.902-0.153,2.658-0.73c0.356-0.274,0.964-1.664,1.429-1.358c0.013,0.007,0.022,0.024,0.022,0.039
			c0,0,0.09,0,0.094,0c0.162,0.002,0.215,0.565,0.304,0.663c0.314,0.313,0.579-0.04,0.927-0.134c0.411-0.117,0.742-0.096,1.02-0.459
			c0.228-0.288,0.395-0.726,0.465-1.09c0.13-0.731-0.117-1.463-0.441-2.112c-0.421-0.85-0.979-1.057-1.852-1.047
			c-0.591,0-0.207-0.914-0.098-1.177c0.259-0.628,0.432-0.906,1.112-0.96c0.43-0.029,0.885-0.262,1.161-0.652
			c0-0.298,0.178-0.585,0.164-0.898h0.014c-0.049-0.248-0.049-0.478-0.072-0.693c-0.009-0.011-0.013,0.011-0.024,0.015
			c-0.056-0.34-0.344-0.469-0.477-0.711l0.015-0.018c-0.024-0.087-0.113-0.099-0.163-0.099c-0.343-0.457-1.042-0.253-1.454-0.055
			c-0.102,0.051-0.118,0.195-0.238,0.242c-0.08,0.028-0.247-0.047-0.303-0.018c-0.445,0.263-0.511,0.607-0.631,1.061
			c-0.14,0.539-0.347,0.888-0.665,1.354c-0.3-0.054-0.308-0.361-0.554-0.593c-0.223-0.622-0.569-0.688-0.514-0.93
			c0,0,0.852-0.621,1.354-1.052c0.526-0.468,0.889-1.045,1.296-1.638c0.753-1.095,1.743-2.568,1.445-4.002
			c-0.138-0.673-0.523-0.881-1.101-1.213c-0.191-0.111-1.459-0.661-1.682-0.689c-0.8-0.08-1.334,0.221-1.715,2.436
			c-0.112,0.645-0.449,2.787-0.688,3.508c-0.119,0.362-0.138,1.062-0.378,1.368c-0.23-0.301-1.064-0.967-1.646-1.181
			c-0.383-0.144-0.426-0.057-0.721,0.146c-0.048,0.036-0.502,0.449-0.475,0.488c0.021,0.033,0.048,0.033,0.066,0.066
			c0,0-0.316,0.797-0.323,0.938c-0.012,0.448,0.049,0.554,0.33,0.898C272.225,162.442,272.319,162.54,272.423,162.636
			 M276.239,169.155c-0.018-0.297,0.294-0.543,0.422-0.8c0.286-0.3,0.645-0.834,1.054-0.942c0.05,0.248-0.024,0.524,0.005,0.782
			c0.041,0.318,0.347,0.875-0.094,1.06c-0.39,0.231-0.882,0.166-1.271,0.066c0.015-0.045-0.012-0.057-0.035-0.08
			c-0.055-0.014-0.09,0.035-0.127-0.045C276.222,169.2,276.226,169.169,276.239,169.155z"/>
		<path fill="#262780" d="M297.013,175.665c-0.877-0.747-2.047-1.277-2.993-2.132c-0.522-0.407-1.101-0.746-1.592-1.181
			c-0.791-0.706-0.711-0.813-0.188-1.64c0.777-1.233,0.947-2.795,1.34-4.204c0.122-0.564,0.34-1.152,0.44-1.729
			c-0.013-0.122,0.019-0.313,0-0.477c-0.101-0.375-0.355-0.851-0.647-0.997c0.017-0.099-0.114-0.125-0.106-0.243
			c-0.21-0.166-0.506-0.299-0.731-0.455c-0.726-0.487-1.158-0.586-1.999-0.255c-0.032-0.092,0.008-0.169-0.017-0.263
			c0.985-0.8,1.108-1.146,2.031-2.503c0.067-0.189,0.495-0.752,0.556-1.014c0.183-0.101,0.454-0.55,0.677-0.914
			c1.039-1.736,0.127-3.127-1.756-3.152c-0.889-0.016-1.129,0.608-1.834,1.013c-0.618,0.36-2.372,0.979-2.914,1.038
			c-0.173,0.021-0.195-0.391-0.195-0.391c-0.376-0.71-1.202-1.919-2.174-1.625c-1.125,0.344-1.171,2.021-1.087,2.943
			c0.106,1.27-0.073,3.578-0.146,4.861c-0.201,3.691-1.05,7.339-2.189,10.747c-0.09,0.261-0.936,2.135-0.851,2.294l-0.013-0.022
			c-0.037,0-0.052,0.041-0.07,0.057c-0.019-0.016-0.039-0.039-0.034-0.074c0.173-0.92-0.304-1.631-1.112-2.074
			c-0.391-0.207-0.852-0.58-1.291-0.375c-0.345,0.165-0.661,0.946-0.833,1.243c-0.231-0.113-0.44-0.319-0.688-0.413
			c-1.515-0.555-2.588,1.808-1.302,2.592c0.092,0.579,0.404,1.129,0.495,1.814c0.267,0.219,0.543,0.094,0.834,0.077
			c0.489-0.091,0.845-0.634,0.957-1.156c0.343-0.174,0-0.379,0.151-0.638c0.207,0.572,0.78,0.768,1.181,0.964
			c0.42,0.211,0.854-0.278,1.074-0.579c0.141-0.188,0.226-0.401,0.331-0.614c0.06-0.127,0.128-0.265,0.218-0.376
			c0.024,0.041-0.059,0.352-0.068,0.47c-0.007,0.228-0.041,0.457-0.029,0.685c0.008,0.162,0.013,0.353,0.1,0.492
			c0.017,0.033,0.139,0.176,0.178,0.152c0.334-0.158,0.617-0.455,0.804-0.858c0.209-0.422,0.647-0.857,0.918-1.22
			c0.805-1.067,1.106-2.397,1.663-3.657c0.19-0.418,0.396-1.284,0.672-1.592c0.17,0.914,0.308,0.604,0.979,1.114
			c0.653,0.49,1.846,1.689,1.846,1.689s-2.68,3.162-4.606,4.578c-0.237,0.178-2.443,2.419-1.959,2.62
			c0.158,0.062,2.601-1.117,3.549-1.819c1.069-0.782,2.14-1.688,3.116-2.581c0.385-0.351,0.944-1.171,1.53-1.197
			c0,0,1.077,1.199,1.384,1.726c0.455,0.778,1.006,1.45,1.458,2.231c0.776,1.331,2.634,0.628,3.845,0.523
			c0.802-0.073,1.917-0.165,2.463-0.851C299.171,177.336,297.794,176.191,297.013,175.665 M290.195,165.838
			c-0.011,0.555-0.269,1.095-0.37,1.724c-0.039,0.049-0.053,0.107-0.049,0.179c-0.138,0.343-0.172,0.784-0.359,1.117
			c-0.737-0.728-1.36-1.753-1.923-2.667c-0.075-0.104-0.172-0.124-0.282-0.124c-0.182,0.17-0.407,0.183-0.654,0.226
			c-0.327,0.014-0.391,0.522-0.714,0.41c0.154,0.053,0.784-4.399,0.884-4.793c0.311-1.237,0.464-2.555,0.54-3.64
			c0.037,0.027,0.79,0.249,0.806,0.2c0.404,0.129,0.293-0.558,0.729-0.512c0.359-0.034,1.007-0.405,1.39-0.374
			c-0.016,0.075,0.05,0.052,0.067,0.083c-0.045,0.424-0.224,0.767-0.296,1.152l0.017-0.016c-0.422,1.219-1.87,5.58-1.838,6.122
			c0.107,0.255,0.202,0.617,0.498,0.611c0.509-0.074,0.521-0.271,0.971-0.476c0.35-0.281,0.655-0.245,0.803-0.105
			C290.442,165.288,290.322,165.613,290.195,165.838z"/>
		<path fill="#262780" d="M274.31,175.895c-0.291-0.545-0.75-0.958-1.425-1.363l-0.033,0.036c-0.115-0.113-0.223-0.212-0.361-0.308
			c-0.445-0.325-0.843,1.104-0.875,1.335c-0.075,0.63,0.016,1.322,0.22,1.931c0.217,0.633,0.78,3.228,1.964,2.462
			c0.113-0.073,0.396-0.081,0.316-0.359c0.646-0.133,0.594-1.845,0.563-2.287C274.642,176.755,274.521,176.29,274.31,175.895z"/>
		<path fill="#262780" d="M321.488,161.866c0-0.018,0-0.04-0.006-0.06c0.02-0.958,0.064-1.559-0.627-2.311
			c-0.293-0.325-0.676-0.568-1.057-0.777c-0.678-0.375-1.543-0.731-2.34-0.637c-0.578,0.066-0.787,0.755-1.266,0.822
			c-0.697,0.085-2.166,0.707-2.822,0.468c-0.668-0.249-0.418-1.354-0.33-1.917c0.115-0.768,0.061-1.061,0.254-1.827
			c0.178-0.732,0.676-1.375,0.596-2.166c-0.162-1.729-2.994-1.183-4.098-1.179c-0.244,0-0.561-0.266-0.773-0.214
			c-1.207,0.301-0.475,2.881-0.449,3.7c0.029,1.09,0.441,2.494,0.078,3.556c-0.242,0.717-1.281,0.686-1.963,0.98
			c-0.25,0.141-0.566,0.296-0.555,0.66c-0.012,0.014-0.02,0.041-0.045,0.033c0.053,0.157-0.096,0.3-0.113,0.409v0.031
			c0.057,0.133,0,0.319,0.113,0.414c-0.041,0.003-0.061,0.057-0.098,0.061c0.195,0.122,0.455,0.182,0.631,0.279
			c0.377,0.262,1.465,0.242,1.871,0.362c0,0.803,0.072,1.944-0.066,2.751c-0.215,0.097-0.301,0.236-0.51,0.344
			c-0.203-0.086-0.385,0.11-0.633,0.106c-0.355,0.164-0.301,0.183-0.498,0.418c0.068,0.09-0.053,0.189,0.014,0.289
			c-0.08,0.207,0.049,0.525,0.09,0.782c0.141,0.765,1.18,0.782,1.734,0.608c0.459,1.813,0.305,4.754,0.354,6.636
			c0.074,2.641,0.213,5.277,0.258,7.914c0.006,0.339,0.527-0.362,0.58-0.622c0.057-0.237,0.258-0.018,0.373,0.014
			c0.146-0.454,1.006-0.363,1.375-0.472c1.426-0.416,0.84-4.32,0.916-5.438c0.094-1.366-0.055-3.461,0.059-4.823
			c0.084-1.066-0.15-3.317,0.088-3.978c0.275-0.119,1.758-0.592,1.709-0.589c0,0.021-0.014,0.026-0.029,0.034
			c-0.26,0.139,0.158,0.893,0.32,1.001c0.467,0.321,0.918-0.1,1.4-0.128c0.451-0.029,0.982,0.22,1.426,0.067
			c0.578-0.203,2.34-2.537,2.926-3.271C320.91,163.522,321.566,162.797,321.488,161.866 M316.072,163.007
			c-0.186,0.458-0.318,0.935-0.697,1.245c-0.098-0.03-0.377,0.727-0.383,0.526c0.023-0.116,0.125-0.195,0.111-0.333
			c-0.041-0.063-0.195-0.088-0.111-0.188c0.023-0.005,0.006-0.037,0.006-0.06c-0.684-0.269-1.492-0.016-2.164-0.016
			c0.016-0.493,0.02-0.44,0.027-1.259c0.191-0.389,0.176-1.068,0.182-1.492c0.932,0.115,1.793-0.835,2.66-0.693l0.852,0.105
			C316.82,161.596,316.228,162.325,316.072,163.007z"/>
		<path fill="#262780" d="M305.74,165.365c-0.107-0.502-0.305-0.995-0.367-1.481c-0.135-0.964,0.535-2.861-0.199-3.652
			c-0.318-0.338-0.553-0.502-1.096-0.679c-0.342-0.109-0.803-0.31-1.172-0.291c-1.203,0.054-1.406,1.634-1.582,2.561
			c-0.082,0.405,0.176,1.3,0.26,1.725c-0.273,1.785,0.523,3.349,1.113,5.056c0.453,0.541,0.131,1.432,0.857,1.72
			C304.464,170.681,305.865,165.939,305.74,165.365 M304.017,169.716c-0.025,0,0.027-0.039,0.031-0.047
			C304.056,169.691,304.029,169.701,304.017,169.716z"/>
		<path fill="#262780" d="M305.957,169.799c0.004-0.01,0.029-0.017,0.02-0.035C305.972,169.772,305.933,169.799,305.957,169.799z"/>
		<path fill="#262780" d="M349.433,166.663c-0.01-0.034-0.02-0.072-0.035-0.112c-0.461-1.357-2.43-2.086-3.588-2.742
			c-0.719,0.254-0.914,0.899-1.668,1.011c-0.604,0.085-1.576-0.114-2.141-0.287c1.236-0.322,2.436-0.561,3.15-1.712
			c0.674-1.088,0.887-2.483,1.313-3.682c0.539-1.532,1.457-3.511-0.191-4.619c-1.752-1.172-2.572-0.371-3.805,0.782
			c-1.023,0.971-3.76,2.492-0.502,2.552c0.242,1.437-0.283,1.432-1.371,1.993c-0.57,0.292-1.17,0.984-0.891,1.665
			c0.188,0.445,1.193,0.579,1.258,1.112c0.029,0.26-0.211,0.295-0.309,0.542c-0.211,0.508,0.172,1.106-0.396,1.423
			c-0.438,0.254-1.621,0.269-2.125,0.214c-0.055-0.119,0.121-0.194,0.016-0.291l0.053-0.056c0.035-0.214,0.125-0.612-0.143-0.839
			c-0.014-0.318-0.398-0.421-0.516-0.645l-0.092,0.062c0.029-0.091-0.113-0.115-0.113-0.196l-0.016,0.016
			c-0.051-0.105-0.053-0.286-0.195-0.294c-0.043-0.748,0.713-1.212,1.117-1.772c0.357-0.508,0.916-0.665,1.307-0.998
			c0.012-0.033,0.055-0.01,0.076-0.018c0.031-0.13,0.191-0.195,0.275-0.272c0.232-0.271,0.365-0.656,0.264-1.01
			c0.029-0.212-0.195-0.359-0.338-0.526l0.037-0.045l-0.068-0.082c-0.375,0.067-0.578-0.585-1.035-0.543
			c-0.133-0.261,0.064-0.486,0.184-0.696c0.172-0.165,0.416-0.384,0.605-0.569c0.092-0.336,0.463-0.53,0.615-0.739l-0.027-0.06
			c0.303-0.208,0.412-0.617,0.67-0.874c0.189-0.384,0.164-0.886,0.15-1.328h0.039c0.004-0.177-0.182-0.241-0.131-0.413
			c-0.117-0.277-0.26-0.503-0.369-0.784c-0.332-0.363-0.627-0.777-1-1.111c-0.217-0.224-0.521-0.688-0.793-0.56
			c-0.102-0.009-0.17-0.123-0.227-0.196c-0.191-0.259-2.006,2.728-2.129,2.997c-0.77,1.733-0.828,0.854-2.205,0.34
			c-0.867-0.327-1.514,0.377-1.65,1.293c-0.084,0.615,0.09,1.052,0.443,1.515c0.377,0.482,0.725,0.389,0.43,1.014
			c-0.191,0.399-1.064,0.729-1.08,1.23c-0.01,0.185-0.059,1.037-0.131,1.16c0.072-0.021,0.092-0.043,0.166-0.088
			c0.115,2.113,4.471-1.863,5.221-0.919c0.293,0.366-0.273,0.746-0.406,1.072c-0.225,0.334-0.502,0.652-0.754,1.034
			c-0.152,0.202-0.385,0.202-0.555,0.219l0.016-0.022c-0.188,0.034-0.279-0.272-0.422-0.352l-0.096,0.042
			c-0.205-0.111-0.525-0.32-0.811-0.433c-0.361-0.007-0.639,0.383-0.834,0.682c0,0.052-0.102,0.1-0.01,0.138
			c-0.186,0.222-0.262,0.36-0.24,0.628c-0.17-0.129-0.324-0.39-0.57-0.317c-0.248,0.069-1.084-0.182-1.434-0.155
			c-0.773,0.053-1.482,0.409-1.512-0.793c0.008,0.403,1.629-0.372,1.725-0.558c-0.021-0.079,0.117-0.056,0.055-0.128
			c0.215-0.123,0.273-0.526,0.299-0.722c0-0.464,0.086-0.797-0.061-1.27c-0.162-0.346-0.598-0.225-0.924-0.275
			c-0.35-0.053-0.527,0.342-0.91,0.058c-0.307-0.225-0.258-0.828-0.346-1.148c-0.193-0.683-0.809-1.537-1.471-0.938
			c-0.725,0.663-0.213,3.162-0.113,3.976c0.162,1.332,0.641,2.58,0.854,3.897c0.064,0.343,0.893,4.134-0.135,2.891
			c-0.359-0.438-0.691-1.127-1.359-0.989c-0.387,0.252-0.557,0.656-0.764,1.03c0.084,0.201-0.16,0.415-0.16,0.545
			c-0.25,0.349-0.533,0.657-0.832,1c-0.359,0.798-0.764,1.443-0.92,2.299c-0.207,0.561,0.092,1.188,0.385,1.674
			c0.512,0.859,1.746,1.132,2.525,0.547c0.645-0.489,0.955-1.253,1.211-1.993c0.072-0.222,0.328-1.839,0.469-1.845
			c2.256-0.076,4.398-1.364,6.656-1.755c1.959-0.335,6.117-1.212,7.197-0.097c0.641,0.659-0.047,0.896-0.117,1.609
			c-0.18,1.659,1.965,0.841,2.996,0.769C347.505,168.73,350.033,168.706,349.433,166.663 M334.816,159.325l0.119-0.121
			L334.816,159.325 M334.037,163.243c0.002,0.022,0.002,0.048,0,0.073c-0.021,0.181-0.217,0.301-0.318,0.429
			c-0.123,0.172-0.023,0.401-0.115,0.593c-0.119,0.259-0.316,0.473-0.418,0.742l-0.029,0.349c-0.391,0.108-0.785,0.188-1.184,0.228
			c-0.348,0.034-0.633,0.126-0.787-0.228c-0.055-0.13-0.041-0.229-0.055-0.372c-0.029-0.247-0.6-1.197-0.123-1.306
			c0.447-0.102,0.727-0.41,1.139-0.604c0.217-0.101,0.484-0.021,0.703-0.129c0.064-0.04,0.488-0.468,0.453-0.498
			c-0.094-0.069-0.07-0.219,0.023-0.268c0.1,0.156,0.191,0.325,0.307,0.475c0.066,0.093,0.09,0.232,0.182,0.311
			C333.916,163.137,334.015,163.127,334.037,163.243 M334.478,165.138c0.225-0.22,0.5-0.465,0.797-0.389
			c0.139,0.113,0.188,0.158,0.297,0.308C335.207,165.08,334.824,165.173,334.478,165.138z"/>
		<path fill="#262780" d="M342.529,172.079c-0.307-0.07-0.578-0.103-0.768-0.09c-1.002,0.09-1.605,0.638-2.717,0.594
			c-0.154-0.163-0.244-0.485-0.316-0.636c0.033-0.336,0.318-0.542,0.566-0.745c0.744-0.222,1.32-0.594,1.967-0.926
			c0.422-0.42,0.857-0.79,0.852-1.506c-0.037-0.433-0.488-0.824-0.807-0.934c-0.393-0.14-0.842-0.431-1.281-0.494
			c-0.684-0.096-1.008,0.26-1.629,0.42c-0.607,0.167-1.385,0.073-2.021,0.133c-0.748,0.07-1.539,0.159-2.152,0.408
			c-0.527,0.215-2.326,0.289-2.457,1.016c-0.18,0.96,0.826,2.086,1.818,1.756c0.639-0.209,0.9-0.964,1.563-1.205
			c0.719-0.269,1.568-0.461,2.338-0.51c0.221-0.018,0.863-0.079,1.031,0.119c0.201,0.236-0.146,1.392-0.457,1.287
			c-0.432-0.151-0.723-0.672-1.26-0.539c-0.369-0.033-0.768,0.06-1.178,0.026c-0.121,0.101-0.236,0.178-0.258,0.321
			c-0.016,0.176-0.078,0.309-0.115,0.453c-0.15,0.608,0.625,1.269,0.51,1.63c-0.176,0.536-2.148,0.48-2.633,0.506
			c-1.156,0.066-3.283,0.337-3.963,1.543c-0.045,0.411-0.277,0.947,0.053,1.366c0.344,0.618,1.012,0.26,1.563,0.363
			c0.578,0.201,1.068,0.012,1.57-0.178c1.1-0.384,2.359-0.963,3.594-0.921l0.035,0.04c-0.059,1.144,0.232,2.401-0.463,3.374
			c-0.32-0.008-0.678-0.429-0.912-0.174c-0.227-0.03-0.355-0.197-0.553-0.328c-0.516-0.182-0.855-0.362-1.689-0.146
			c-0.449,0.188-0.5,0.83-0.303,1.25c0.205,0.442,0.793,0.856,1.164,1.116c0.418,0.293,0.736,0.691,1.1,1.046
			c1.695,1.632,3.662,0.308,4.682-1.318c0.555-0.888,0.695-1.817,0.678-2.851c-0.008-0.235-0.348-2.069-0.148-2.206
			c0.367-0.257,0.785-0.089,1.246-0.142c1.188-0.091,1.916,0.647,3.09,0.764c0.504-0.061,0.918-0.413,1.186-0.835
			c0.408-0.514,0.291-0.892,0.039-1.459C344.839,172.88,343.503,172.295,342.529,172.079z"/>
		<path fill="#262780" d="M349.433,166.663c-0.01-0.034-0.02-0.072-0.035-0.112c-0.461-1.357-2.43-2.086-3.588-2.742
			c-0.719,0.254-0.914,0.899-1.668,1.011c-0.604,0.085-1.576-0.114-2.141-0.287c1.236-0.322,2.436-0.561,3.15-1.712
			c0.674-1.088,0.887-2.483,1.313-3.682c0.539-1.532,1.457-3.511-0.191-4.619c-1.752-1.172-2.572-0.371-3.805,0.782
			c-1.023,0.971-3.76,2.492-0.502,2.552c0.242,1.437-0.283,1.432-1.371,1.993c-0.57,0.292-1.17,0.984-0.891,1.665
			c0.188,0.445,1.193,0.579,1.258,1.112c0.029,0.26-0.211,0.295-0.309,0.542c-0.211,0.508,0.172,1.106-0.396,1.423
			c-0.438,0.254-1.621,0.269-2.125,0.214c-0.055-0.119,0.121-0.194,0.016-0.291l0.053-0.056c0.035-0.214,0.125-0.612-0.143-0.839
			c-0.014-0.318-0.398-0.421-0.516-0.645l-0.092,0.062c0.029-0.091-0.113-0.115-0.113-0.196l-0.016,0.016
			c-0.051-0.105-0.053-0.286-0.195-0.294c-0.043-0.748,0.713-1.212,1.117-1.772c0.357-0.508,0.916-0.665,1.307-0.998
			c0.012-0.033,0.055-0.01,0.076-0.018c0.031-0.13,0.191-0.195,0.275-0.272c0.232-0.271,0.365-0.656,0.264-1.01
			c0.029-0.212-0.195-0.359-0.338-0.526l0.037-0.045l-0.068-0.082c-0.375,0.067-0.578-0.585-1.035-0.543
			c-0.133-0.261,0.064-0.486,0.184-0.696c0.172-0.165,0.416-0.384,0.605-0.569c0.092-0.336,0.463-0.53,0.615-0.739l-0.027-0.06
			c0.303-0.208,0.412-0.617,0.67-0.874c0.189-0.384,0.164-0.886,0.15-1.328h0.039c0.004-0.177-0.182-0.241-0.131-0.413
			c-0.117-0.277-0.26-0.503-0.369-0.784c-0.332-0.363-0.627-0.777-1-1.111c-0.217-0.224-0.521-0.688-0.793-0.56
			c-0.102-0.009-0.17-0.123-0.227-0.196c-0.191-0.259-2.006,2.728-2.129,2.997c-0.77,1.733-0.828,0.854-2.205,0.34
			c-0.867-0.327-1.514,0.377-1.65,1.293c-0.084,0.615,0.09,1.052,0.443,1.515c0.377,0.482,0.725,0.389,0.43,1.014
			c-0.191,0.399-1.064,0.729-1.08,1.23c-0.01,0.185-0.059,1.037-0.131,1.16c0.072-0.021,0.092-0.043,0.166-0.088
			c0.115,2.113,4.471-1.863,5.221-0.919c0.293,0.366-0.273,0.746-0.406,1.072c-0.225,0.334-0.502,0.652-0.754,1.034
			c-0.152,0.202-0.385,0.202-0.555,0.219l0.016-0.022c-0.188,0.034-0.279-0.272-0.422-0.352l-0.096,0.042
			c-0.205-0.111-0.525-0.32-0.811-0.433c-0.361-0.007-0.639,0.383-0.834,0.682c0,0.052-0.102,0.1-0.01,0.138
			c-0.186,0.222-0.262,0.36-0.24,0.628c-0.17-0.129-0.324-0.39-0.57-0.317c-0.248,0.069-1.084-0.182-1.434-0.155
			c-0.773,0.053-1.482,0.409-1.512-0.793c0.008,0.403,1.629-0.372,1.725-0.558c-0.021-0.079,0.117-0.056,0.055-0.128
			c0.215-0.123,0.273-0.526,0.299-0.722c0-0.464,0.086-0.797-0.061-1.27c-0.162-0.346-0.598-0.225-0.924-0.275
			c-0.35-0.053-0.527,0.342-0.91,0.058c-0.307-0.225-0.258-0.828-0.346-1.148c-0.193-0.683-0.809-1.537-1.471-0.938
			c-0.725,0.663-0.213,3.162-0.113,3.976c0.162,1.332,0.641,2.58,0.854,3.897c0.064,0.343,0.893,4.134-0.135,2.891
			c-0.359-0.438-0.691-1.127-1.359-0.989c-0.387,0.252-0.557,0.656-0.764,1.03c0.084,0.201-0.16,0.415-0.16,0.545
			c-0.25,0.349-0.533,0.657-0.832,1c-0.359,0.798-0.764,1.443-0.92,2.299c-0.207,0.561,0.092,1.188,0.385,1.674
			c0.512,0.859,1.746,1.132,2.525,0.547c0.645-0.489,0.955-1.253,1.211-1.993c0.072-0.222,0.328-1.839,0.469-1.845
			c2.256-0.076,4.398-1.364,6.656-1.755c1.959-0.335,6.117-1.212,7.197-0.097c0.641,0.659-0.047,0.896-0.117,1.609
			c-0.18,1.659,1.965,0.841,2.996,0.769C347.505,168.73,350.033,168.706,349.433,166.663 M334.816,159.325l0.119-0.121
			L334.816,159.325 M334.037,163.243c0.002,0.022,0.002,0.048,0,0.073c-0.021,0.181-0.217,0.301-0.318,0.429
			c-0.123,0.172-0.023,0.401-0.115,0.593c-0.119,0.259-0.316,0.473-0.418,0.742l-0.029,0.349c-0.391,0.108-0.785,0.188-1.184,0.228
			c-0.348,0.034-0.633,0.126-0.787-0.228c-0.055-0.13-0.041-0.229-0.055-0.372c-0.029-0.247-0.6-1.197-0.123-1.306
			c0.447-0.102,0.727-0.41,1.139-0.604c0.217-0.101,0.484-0.021,0.703-0.129c0.064-0.04,0.488-0.468,0.453-0.498
			c-0.094-0.069-0.07-0.219,0.023-0.268c0.1,0.156,0.191,0.325,0.307,0.475c0.066,0.093,0.09,0.232,0.182,0.311
			C333.916,163.137,334.015,163.127,334.037,163.243 M334.478,165.138c0.225-0.22,0.5-0.465,0.797-0.389
			c0.139,0.113,0.188,0.158,0.297,0.308C335.207,165.08,334.824,165.173,334.478,165.138z"/>
		<path fill="#262780" d="M342.529,172.079c-0.307-0.07-0.578-0.103-0.768-0.09c-1.002,0.09-1.605,0.638-2.717,0.594
			c-0.154-0.163-0.244-0.485-0.316-0.636c0.033-0.336,0.318-0.542,0.566-0.745c0.744-0.222,1.32-0.594,1.967-0.926
			c0.422-0.42,0.857-0.79,0.852-1.506c-0.037-0.433-0.488-0.824-0.807-0.934c-0.393-0.14-0.842-0.431-1.281-0.494
			c-0.684-0.096-1.008,0.26-1.629,0.42c-0.607,0.167-1.385,0.073-2.021,0.133c-0.748,0.07-1.539,0.159-2.152,0.408
			c-0.527,0.215-2.326,0.289-2.457,1.016c-0.18,0.96,0.826,2.086,1.818,1.756c0.639-0.209,0.9-0.964,1.563-1.205
			c0.719-0.269,1.568-0.461,2.338-0.51c0.221-0.018,0.863-0.079,1.031,0.119c0.201,0.236-0.146,1.392-0.457,1.287
			c-0.432-0.151-0.723-0.672-1.26-0.539c-0.369-0.033-0.768,0.06-1.178,0.026c-0.121,0.101-0.236,0.178-0.258,0.321
			c-0.016,0.176-0.078,0.309-0.115,0.453c-0.15,0.608,0.625,1.269,0.51,1.63c-0.176,0.536-2.148,0.48-2.633,0.506
			c-1.156,0.066-3.283,0.337-3.963,1.543c-0.045,0.411-0.277,0.947,0.053,1.366c0.344,0.618,1.012,0.26,1.563,0.363
			c0.578,0.201,1.068,0.012,1.57-0.178c1.1-0.384,2.359-0.963,3.594-0.921l0.035,0.04c-0.059,1.144,0.232,2.401-0.463,3.374
			c-0.32-0.008-0.678-0.429-0.912-0.174c-0.227-0.03-0.355-0.197-0.553-0.328c-0.516-0.182-0.855-0.362-1.689-0.146
			c-0.449,0.188-0.5,0.83-0.303,1.25c0.205,0.442,0.793,0.856,1.164,1.116c0.418,0.293,0.736,0.691,1.1,1.046
			c1.695,1.632,3.662,0.308,4.682-1.318c0.555-0.888,0.695-1.817,0.678-2.851c-0.008-0.235-0.348-2.069-0.148-2.206
			c0.367-0.257,0.785-0.089,1.246-0.142c1.188-0.091,1.916,0.647,3.09,0.764c0.504-0.061,0.918-0.413,1.186-0.835
			c0.408-0.514,0.291-0.892,0.039-1.459C344.839,172.88,343.503,172.295,342.529,172.079z"/>
		<path fill="#262780" d="M242.023,176.582c-1.221-0.085-2.264-0.041-3.456-0.259c-2.268-0.039-4.361-0.229-6.507-0.335
			c-0.131-1.137,0.155-2.282,0.071-3.514c0.41-0.303,0.886-0.508,1.376-0.63c0.61-0.198,0.938-0.761,0.761-1.417
			c-0.542-0.674-1.834-0.804-2.68-0.544c0.055-0.207,0.088-0.435,0.192-0.618c0.153-0.338,0.54-0.667,0.952-0.624
			c0.639-0.269,0.62-0.852,0.696-1.469c-0.357-0.78-1.352-0.32-1.964-0.557c0.589-1.223,2.232-0.749,2.805-2.061
			c0.272-0.406-0.081-0.771-0.201-1.146c-0.249-0.174-0.515-0.391-0.821-0.271c-0.359-0.645,0.704-1.101,1.031-1.708
			c1.316-0.4,2.904,0.739,4.103-0.175c0.36-0.286,0.404-0.743,0.332-1.158c-0.597-1.1-2.247-0.878-3.249-0.743
			c-0.971,0.444-0.709-0.629-1.366-0.893c-0.251-0.103-0.662-0.192-0.88,0.006c-0.465,0.092-0.563,0.572-0.716,0.913
			c-0.457,0.902-1.663,0.936-2.489,0.804c-0.044-0.533-0.011-1.154,0.237-1.604c0.445-1.094,1.646-0.062,2.364-0.559
			c1.21-0.727,0.716-2.394,1.37-3.475c-0.529-1.11-2.514-0.212-2.849-1.432c-0.276-0.522-0.87-0.644-1.418-0.74
			c-0.614,0.204-1.129,0.83-1.231,1.447c-0.202,0.805-1.083,0.901-1.715,1.1c-1.097,0.593-1.129,1.843-1.433,2.871
			c0.589,0.717,1.487,1.754,2.543,1.41c0.354,0.416,0.511,0.953,0.56,1.483c-0.501,0.258-0.771-0.426-1.229-0.517
			c-0.474-0.139-0.942-0.025-1.286,0.33c-0.111,2.332-3.105,1.148-3.731,3.111c-1.159-0.016-2.295,0.024-3.288,0.509
			c-0.866,0.261-1.213,1.17-1.34,1.972c0.625,0.494,1.324,0.802,2.023,1.138c-0.552,0.897-0.519,2.104-1.409,2.85
			c-0.442,1.039,0.809,1.584,1.385,2.149c0.227,0.518-0.119,0.982-0.396,1.389c-0.851,0.399-1.744,0.769-2.163,1.724
			c-0.354,1.188,0.986,2.128,1.685,2.995c0.651,0.47,1.409,0.021,1.975-0.186c1.252-0.958,2.752,0.04,4.014,0.357
			c1.547,0.923,3.18,1.673,4.987,2.06c2.287,0.064,3.771,2.466,6.213,1.661c1.578-0.546,3.437-0.781,4.526-2.236
			c0.13-0.848,1.38-1.438,0.939-2.313c0.094-0.068,0.104-0.182,0.224-0.247c-0.205-0.168-0.105-0.373-0.329-0.479
			C241.461,176.715,241.878,176.828,242.023,176.582z M228.773,174.998c-1.825-0.498-3.921-0.69-5.768-1.201
			c-0.135-0.579,0.467-1.04,0.517-1.637c0.271-1.376-0.389-2.448-1.155-3.433c0.323-1.463,1.558-3.071,0.544-4.599
			c0.768,0.357,2.053,0.049,2.954,0.114c0.494,0.298,0.752,0.729,1.153,1.121c-0.437,0.302-0.933,0.629-1.215,1.121
			c0.283,1.376,3.056-0.018,2.217,1.563c-0.416,0.445-1.011,0.876-1.205,1.471c0.282,0.867,2.004,0.234,1.739,1.514
			c-1.052,1.13-2.778,1.35-3.851,2.595c1.15,0.58,2.729,0.016,3.941,0.276C228.793,174.238,228.932,174.662,228.773,174.998z
			 M229.362,164.156l-0.367-0.063l0.189-1.495c0.633-0.177,1.202-0.542,1.9-0.532C230.877,162.933,230.305,163.809,229.362,164.156z
			"/>
		<path fill="#262780" d="M220.317,160.858c0.515,0.764,1.614,0.563,2.452,0.492c0.792-0.219,1.263-0.823,1.759-1.471
			c0.23-1.053-0.154-2.182-1.024-2.87c-0.776-0.685-1.952-0.763-2.971-0.764c-0.893,0.28-1.795,0.814-2.274,1.668
			c-0.263,0.592,0.346,0.992,0.294,1.568C219.228,159.908,219.351,161.09,220.317,160.858z"/>
		<path fill="#262780" d="M203.783,155.081l-0.416-0.355c-0.761-1.899-2.957-2.382-4.934-2.496
			c-0.684,0.441-1.686,0.131-2.256,0.721c0.37,1.125,0.663,2.463,1.81,3.182c0.067,0.492-0.677,0.414-1.019,0.638
			c-1.907,0.424-3.762,1.096-5.568,1.859c-0.998,0.19-0.767,1.265-1.106,1.932c0.15,0.339,0.6,0.315,0.936,0.258
			c2.474-1.396,5.129-2.688,7.866-3.104c-1.894,1.611-4.064,3.047-5.551,5.054c-0.299,0.766-1.21,1.622-0.539,2.479
			c1.83,0.674,3.369-0.927,5.11-1.247c1.289-0.769,2.776-1.359,3.859-2.273c1.281-0.058,1.49,1.483,1.872,2.424
			c0.342,0.252,0.767,0.365,1.234,0.34c-0.295,0.246-1.003,0.329-1.396,0.62c-1.879,0.29-4.111,1.507-4.74,3.392
			c-0.164-0.509,0.104-1.175-0.399-1.554c-0.382-0.423-1.088-0.525-1.616-0.336c-0.618,3.112-1.762,6.295-1.16,9.655
			c0.502,1.883-1.155,3.961,0.596,5.409c1.519,0.4,2.174-1.08,2.903-2.015c0.127-0.724,0.072-1.506-0.155-2.132
			c0.228-2.896-0.236-5.558-0.253-8.303c0.401,0.044,0.665,0.461,1.116,0.385c1.4-0.619,2.797-1.71,4.357-1.235
			c0.488,2.669,0.141,5.528,0.298,8.257c0.128,0.808-0.672,1.197-1.189,1.646c-0.399,0.5,0.095,0.994,0.313,1.407
			c-0.062,1.361,0.54,2.574,1.412,3.657c0.631,0.17,1.284-0.182,1.923-0.267c0.743-0.247,1.459-0.83,1.567-1.672
			c1.324-1.025,1.083-2.928,1.155-4.438c-1.035-2.126-0.918-4.666-1.158-7.071c0.054-1.668,0.903-3.684-0.548-4.908
			c-0.511-0.642-1.22-0.224-1.739-0.699c0.317-0.24,0.709,0.059,1.069-0.113c0.815-0.243,1.296-0.978,1.728-1.664
			c0.17-0.56,0.156-1.246-0.056-1.771c-0.574-1.798-2.423-1.749-3.787-2.305c-1.429-0.304,0.403-0.97,0.241-1.689
			c0.536-0.803,1.349-0.529,2.046-0.282c1.334-0.812,2.772,0.368,4.135,0.054c0.721-0.319,0.786-1.169,0.887-1.826
			c-0.494,0.024-0.76-0.436-1.157-0.6C208.75,153.703,206.425,154.99,203.783,155.081z M198.167,160.434
			c0.387-0.714,1.947-1.278,1.695-2.421l-0.385-0.491c0.825,0.653,1.791,0.674,2.587,1.35l0.212,0.01
			C201.522,160.378,199.661,160.242,198.167,160.434z"/>
		<path fill="#262780" d="M199.688,172.242c1.067,0.945,1.834-0.266,2.729-0.696c0.407-0.197,0.661-0.655,0.638-1.151
			c-0.075-0.313-0.398-0.419-0.66-0.502c-1.363-0.586-2.178,0.529-2.939,1.3C199.344,171.564,199.348,172.015,199.688,172.242z"/>
		<path fill="#262780" d="M204.202,174.272c-0.637-0.098-0.938-0.677-1.442-1.034c-0.884-0.347-2.124-0.078-2.84,0.622
			c-0.026,0.495-0.206,0.89-0.416,1.303c0.432,0.896,1.416,1.036,2.291,1.006c0.76-0.574,1.771-0.388,2.523-0.921
			C204.589,174.977,204.422,174.522,204.202,174.272z"/>
	</g>
	<g enable-background="new    ">
		<path fill="#1B1C7E" d="M196.761,194.454v-6.789h-2.818v-0.908h6.779v0.908h-2.83v6.789H196.761z"/>
		<path fill="#1B1C7E" d="M204.468,193.766c-0.389,0.298-0.763,0.508-1.123,0.63s-0.746,0.184-1.158,0.184
			c-0.681,0-1.204-0.149-1.569-0.449s-0.548-0.682-0.548-1.147c0-0.273,0.069-0.522,0.207-0.748
			c0.138-0.226,0.319-0.407,0.542-0.543c0.224-0.137,0.476-0.24,0.756-0.31c0.206-0.049,0.517-0.096,0.933-0.142
			c0.848-0.091,1.472-0.199,1.873-0.326c0.003-0.129,0.006-0.211,0.006-0.247c0-0.385-0.1-0.656-0.298-0.814
			c-0.268-0.213-0.667-0.32-1.196-0.32c-0.494,0-0.858,0.078-1.094,0.234s-0.41,0.432-0.522,0.827l-1.026-0.126
			c0.093-0.396,0.247-0.715,0.46-0.958s0.523-0.431,0.928-0.562c0.404-0.131,0.873-0.197,1.406-0.197
			c0.529,0,0.958,0.056,1.289,0.168c0.331,0.112,0.574,0.253,0.729,0.423c0.156,0.17,0.265,0.384,0.327,0.643
			c0.035,0.161,0.052,0.452,0.052,0.872v1.26c0,0.878,0.022,1.434,0.067,1.667c0.045,0.233,0.133,0.456,0.266,0.669h-1.097
			C204.569,194.259,204.499,194.029,204.468,193.766z M204.381,191.656c-0.381,0.14-0.953,0.259-1.715,0.357
			c-0.432,0.056-0.737,0.119-0.916,0.189s-0.317,0.172-0.414,0.307s-0.146,0.285-0.146,0.449c0,0.252,0.106,0.462,0.318,0.63
			s0.522,0.252,0.931,0.252c0.404,0,0.764-0.08,1.079-0.239s0.546-0.377,0.694-0.654c0.113-0.213,0.169-0.528,0.169-0.945V191.656z"
			/>
		<path fill="#1B1C7E" d="M206.679,191.666c0-1.033,0.319-1.797,0.957-2.294c0.533-0.413,1.182-0.62,1.948-0.62
			c0.852,0,1.548,0.251,2.089,0.753c0.541,0.502,0.811,1.196,0.811,2.082c0,0.717-0.12,1.282-0.359,1.693
			c-0.239,0.411-0.587,0.73-1.044,0.958s-0.956,0.341-1.497,0.341c-0.867,0-1.568-0.25-2.103-0.751
			C206.946,193.329,206.679,192.608,206.679,191.666z M207.758,191.666c0,0.714,0.173,1.249,0.519,1.604
			c0.346,0.355,0.782,0.533,1.307,0.533c0.521,0,0.955-0.179,1.301-0.536s0.519-0.901,0.519-1.633c0-0.69-0.174-1.212-0.522-1.567
			s-0.781-0.533-1.298-0.533c-0.525,0-0.96,0.177-1.307,0.53C207.931,190.419,207.758,190.952,207.758,191.666z"/>
		<path fill="#1B1C7E" d="M213.668,196.602l-0.117-0.887c0.229,0.056,0.43,0.084,0.601,0.084c0.233,0,0.42-0.035,0.56-0.105
			c0.14-0.07,0.255-0.168,0.344-0.294c0.066-0.095,0.173-0.329,0.321-0.704c0.02-0.053,0.051-0.13,0.093-0.231l-2.351-5.587h1.132
			l1.29,3.229c0.167,0.41,0.317,0.84,0.449,1.292c0.12-0.434,0.264-0.858,0.432-1.271l1.324-3.25h1.05l-2.357,5.671
			c-0.253,0.612-0.449,1.034-0.589,1.265c-0.187,0.312-0.401,0.54-0.642,0.685c-0.241,0.146-0.529,0.218-0.864,0.218
			C214.143,196.718,213.917,196.679,213.668,196.602z"/>
		<path fill="#1B1C7E" d="M223.749,194.454v-0.819c-0.482,0.63-1.138,0.945-1.966,0.945c-0.366,0-0.707-0.063-1.024-0.189
			s-0.552-0.284-0.706-0.475c-0.154-0.191-0.262-0.424-0.324-0.701c-0.043-0.186-0.064-0.479-0.064-0.882v-3.455h1.05v3.093
			c0,0.494,0.021,0.826,0.064,0.998c0.066,0.249,0.206,0.444,0.42,0.585s0.479,0.212,0.793,0.212c0.315,0,0.611-0.072,0.887-0.218
			c0.276-0.145,0.472-0.343,0.586-0.593c0.115-0.25,0.172-0.613,0.172-1.089v-2.988h1.05v5.576H223.749z"/>
		<path fill="#1B1C7E" d="M230.376,193.766c-0.389,0.298-0.763,0.508-1.123,0.63s-0.746,0.184-1.158,0.184
			c-0.681,0-1.204-0.149-1.569-0.449s-0.548-0.682-0.548-1.147c0-0.273,0.069-0.522,0.207-0.748
			c0.138-0.226,0.319-0.407,0.542-0.543c0.224-0.137,0.476-0.24,0.756-0.31c0.206-0.049,0.517-0.096,0.933-0.142
			c0.848-0.091,1.472-0.199,1.873-0.326c0.003-0.129,0.006-0.211,0.006-0.247c0-0.385-0.1-0.656-0.298-0.814
			c-0.268-0.213-0.667-0.32-1.196-0.32c-0.494,0-0.858,0.078-1.094,0.234s-0.41,0.432-0.522,0.827l-1.026-0.126
			c0.093-0.396,0.247-0.715,0.46-0.958s0.523-0.431,0.928-0.562c0.404-0.131,0.873-0.197,1.406-0.197
			c0.529,0,0.958,0.056,1.289,0.168c0.331,0.112,0.574,0.253,0.729,0.423c0.156,0.17,0.265,0.384,0.327,0.643
			c0.035,0.161,0.052,0.452,0.052,0.872v1.26c0,0.878,0.022,1.434,0.067,1.667c0.045,0.233,0.133,0.456,0.266,0.669h-1.097
			C230.478,194.259,230.407,194.029,230.376,193.766z M230.289,191.656c-0.381,0.14-0.953,0.259-1.715,0.357
			c-0.432,0.056-0.737,0.119-0.916,0.189s-0.317,0.172-0.414,0.307s-0.146,0.285-0.146,0.449c0,0.252,0.106,0.462,0.318,0.63
			s0.522,0.252,0.931,0.252c0.404,0,0.764-0.08,1.079-0.239s0.546-0.377,0.694-0.654c0.113-0.213,0.169-0.528,0.169-0.945V191.656z"
			/>
		<path fill="#1B1C7E" d="M232.978,194.454v-5.576h0.945v0.793c0.455-0.612,1.112-0.919,1.972-0.919c0.374,0,0.716,0.061,1.03,0.181
			c0.313,0.121,0.547,0.279,0.703,0.475c0.156,0.196,0.265,0.429,0.327,0.698c0.039,0.175,0.059,0.481,0.059,0.919v3.429h-1.05
			v-3.392c0-0.385-0.041-0.673-0.123-0.864c-0.082-0.191-0.227-0.343-0.435-0.457s-0.452-0.17-0.732-0.17
			c-0.447,0-0.833,0.127-1.158,0.383c-0.325,0.255-0.487,0.74-0.487,1.454v3.045H232.978z"/>
		<path fill="#1B1C7E" d="M248.589,194.454v-3.261l-3.296-4.437h1.376l1.686,2.321c0.311,0.434,0.601,0.868,0.87,1.302
			c0.256-0.403,0.567-0.856,0.933-1.36l1.657-2.263h1.319l-3.413,4.437v3.261H248.589z"/>
		<path fill="#1B1C7E" d="M257.417,194.454v-0.819c-0.482,0.63-1.138,0.945-1.966,0.945c-0.366,0-0.707-0.063-1.024-0.189
			s-0.552-0.284-0.706-0.475c-0.154-0.191-0.262-0.424-0.324-0.701c-0.043-0.186-0.064-0.479-0.064-0.882v-3.455h1.05v3.093
			c0,0.494,0.021,0.826,0.064,0.998c0.066,0.249,0.206,0.444,0.42,0.585s0.479,0.212,0.793,0.212c0.315,0,0.611-0.072,0.887-0.218
			c0.276-0.145,0.472-0.343,0.586-0.593c0.115-0.25,0.172-0.613,0.172-1.089v-2.988h1.05v5.576H257.417z"/>
		<path fill="#1B1C7E" d="M264.021,194.454v-0.704c-0.393,0.553-0.97,0.83-1.732,0.83c-0.494,0-0.948-0.123-1.362-0.368
			c-0.415-0.245-0.735-0.587-0.963-1.026c-0.228-0.439-0.341-0.944-0.341-1.515c0-0.557,0.103-1.062,0.31-1.515
			c0.206-0.454,0.515-0.801,0.927-1.042c0.412-0.241,0.873-0.362,1.383-0.362c0.374,0,0.706,0.071,0.998,0.213
			c0.292,0.142,0.529,0.326,0.712,0.554v-2.762h1.044v7.697H264.021z M260.701,191.672c0,0.714,0.167,1.248,0.501,1.602
			s0.729,0.53,1.185,0.53c0.458,0,0.849-0.169,1.169-0.507s0.481-0.853,0.481-1.546c0-0.763-0.164-1.323-0.49-1.68
			s-0.729-0.536-1.208-0.536c-0.467,0-0.856,0.172-1.17,0.515C260.857,190.392,260.701,190.933,260.701,191.672z"/>
		<path fill="#1B1C7E" d="M270.688,193.766c-0.389,0.298-0.763,0.508-1.123,0.63s-0.746,0.184-1.158,0.184
			c-0.681,0-1.204-0.149-1.569-0.449s-0.548-0.682-0.548-1.147c0-0.273,0.069-0.522,0.207-0.748
			c0.138-0.226,0.319-0.407,0.542-0.543c0.224-0.137,0.476-0.24,0.756-0.31c0.206-0.049,0.517-0.096,0.933-0.142
			c0.848-0.091,1.472-0.199,1.873-0.326c0.003-0.129,0.006-0.211,0.006-0.247c0-0.385-0.1-0.656-0.298-0.814
			c-0.268-0.213-0.667-0.32-1.196-0.32c-0.494,0-0.858,0.078-1.094,0.234s-0.41,0.432-0.522,0.827l-1.026-0.126
			c0.093-0.396,0.247-0.715,0.46-0.958s0.523-0.431,0.928-0.562c0.404-0.131,0.873-0.197,1.406-0.197
			c0.529,0,0.958,0.056,1.289,0.168c0.331,0.112,0.574,0.253,0.729,0.423c0.156,0.17,0.265,0.384,0.327,0.643
			c0.035,0.161,0.052,0.452,0.052,0.872v1.26c0,0.878,0.022,1.434,0.067,1.667c0.045,0.233,0.133,0.456,0.266,0.669h-1.097
			C270.79,194.259,270.719,194.029,270.688,193.766z M270.601,191.656c-0.381,0.14-0.953,0.259-1.715,0.357
			c-0.432,0.056-0.737,0.119-0.916,0.189s-0.317,0.172-0.414,0.307s-0.146,0.285-0.146,0.449c0,0.252,0.106,0.462,0.318,0.63
			s0.522,0.252,0.931,0.252c0.404,0,0.764-0.08,1.079-0.239s0.546-0.377,0.694-0.654c0.113-0.213,0.169-0.528,0.169-0.945V191.656z"
			/>
		<path fill="#1B1C7E" d="M280.098,194.454v-7.697h1.132v3.161h4.446v-3.161h1.131v7.697h-1.131v-3.628h-4.446v3.628H280.098z"/>
		<path fill="#1B1C7E" d="M288.563,187.844v-1.087h1.05v1.087H288.563z M288.563,194.454v-5.576h1.05v5.576H288.563z"/>
		<path fill="#1B1C7E" d="M291.02,194.916l1.021,0.137c0.042,0.284,0.161,0.49,0.355,0.62c0.261,0.175,0.617,0.262,1.068,0.262
			c0.486,0,0.861-0.087,1.126-0.262c0.264-0.175,0.443-0.42,0.537-0.735c0.054-0.192,0.08-0.597,0.076-1.213
			c-0.459,0.487-1.031,0.73-1.715,0.73c-0.852,0-1.511-0.276-1.978-0.83s-0.7-1.216-0.7-1.99c0-0.532,0.107-1.023,0.321-1.473
			c0.214-0.45,0.524-0.797,0.93-1.042c0.407-0.245,0.884-0.368,1.433-0.368c0.731,0,1.334,0.266,1.808,0.798v-0.672h0.969v4.82
			c0,0.868-0.099,1.483-0.295,1.845s-0.507,0.648-0.933,0.858c-0.426,0.21-0.95,0.315-1.572,0.315c-0.739,0-1.336-0.15-1.791-0.449
			S291.004,195.518,291.02,194.916z M291.889,191.567c0,0.731,0.161,1.265,0.484,1.602c0.323,0.336,0.727,0.504,1.213,0.504
			c0.482,0,0.887-0.167,1.213-0.501s0.49-0.858,0.49-1.573c0-0.683-0.168-1.197-0.504-1.543s-0.742-0.52-1.216-0.52
			c-0.467,0-0.863,0.171-1.19,0.512C292.052,190.388,291.889,190.894,291.889,191.567z"/>
		<path fill="#1B1C7E" d="M297.857,194.454v-7.697h1.051v2.762c0.49-0.511,1.107-0.767,1.854-0.767c0.459,0,0.859,0.082,1.197,0.244
			c0.338,0.163,0.58,0.388,0.727,0.675c0.145,0.287,0.219,0.704,0.219,1.25v3.534h-1.051v-3.534c0-0.473-0.113-0.816-0.342-1.032
			c-0.227-0.215-0.549-0.323-0.965-0.323c-0.311,0-0.604,0.073-0.879,0.218c-0.273,0.146-0.469,0.342-0.586,0.591
			c-0.115,0.249-0.174,0.591-0.174,1.029v3.051H297.857z"/>
		<path fill="#1B1C7E" d="M310.89,191.981l1.067-0.084c0.051,0.385,0.168,0.701,0.353,0.948c0.185,0.247,0.472,0.446,0.86,0.599
			c0.39,0.152,0.827,0.229,1.313,0.229c0.432,0,0.813-0.058,1.143-0.173c0.331-0.116,0.577-0.274,0.738-0.475
			s0.242-0.421,0.242-0.659c0-0.241-0.078-0.452-0.233-0.632c-0.155-0.181-0.412-0.332-0.77-0.455
			c-0.23-0.08-0.737-0.206-1.523-0.375c-0.785-0.17-1.336-0.33-1.65-0.48c-0.408-0.193-0.713-0.432-0.913-0.717
			s-0.301-0.604-0.301-0.958c0-0.388,0.123-0.751,0.367-1.089c0.245-0.338,0.604-0.594,1.074-0.769
			c0.471-0.175,0.993-0.263,1.569-0.263c0.634,0,1.192,0.092,1.677,0.276c0.484,0.184,0.856,0.454,1.117,0.811s0.4,0.761,0.42,1.213
			l-1.085,0.074c-0.059-0.487-0.256-0.854-0.592-1.103c-0.337-0.248-0.834-0.373-1.491-0.373c-0.685,0-1.183,0.113-1.496,0.339
			c-0.313,0.226-0.47,0.498-0.47,0.816c0,0.276,0.111,0.504,0.333,0.683c0.218,0.178,0.786,0.361,1.706,0.548
			c0.92,0.188,1.551,0.351,1.894,0.491c0.497,0.207,0.865,0.468,1.103,0.785c0.237,0.317,0.355,0.682,0.355,1.095
			c0,0.41-0.13,0.795-0.391,1.158s-0.635,0.644-1.123,0.846c-0.488,0.201-1.037,0.302-1.648,0.302c-0.773,0-1.422-0.102-1.945-0.305
			s-0.934-0.508-1.23-0.916C311.062,192.957,310.905,192.496,310.89,191.981z"/>
		<path fill="#1B1C7E" d="M323.152,192.412l1.033,0.121c-0.113,0.641-0.401,1.142-0.866,1.504s-1.036,0.543-1.713,0.543
			c-0.848,0-1.529-0.25-2.045-0.748c-0.515-0.499-0.772-1.214-0.772-2.145c0-0.602,0.11-1.129,0.332-1.581
			c0.222-0.451,0.56-0.79,1.013-1.016c0.453-0.226,0.946-0.339,1.479-0.339c0.673,0,1.224,0.153,1.651,0.459
			s0.702,0.741,0.822,1.305l-1.021,0.142c-0.098-0.375-0.27-0.657-0.517-0.846s-0.545-0.283-0.896-0.283
			c-0.529,0-0.959,0.17-1.289,0.512c-0.331,0.341-0.496,0.881-0.496,1.62c0,0.75,0.159,1.293,0.479,1.633
			c0.318,0.339,0.735,0.509,1.248,0.509c0.412,0,0.757-0.114,1.033-0.341C322.903,193.235,323.079,192.885,323.152,192.412z"/>
		<path fill="#1B1C7E" d="M325.083,194.454v-7.697h1.051v2.762c0.49-0.511,1.108-0.767,1.854-0.767c0.459,0,0.858,0.082,1.196,0.244
			c0.339,0.163,0.581,0.388,0.727,0.675s0.219,0.704,0.219,1.25v3.534h-1.05v-3.534c0-0.473-0.114-0.816-0.342-1.032
			s-0.549-0.323-0.966-0.323c-0.311,0-0.604,0.073-0.878,0.218c-0.273,0.146-0.47,0.342-0.586,0.591s-0.175,0.591-0.175,1.029v3.051
			H325.083z"/>
		<path fill="#1B1C7E" d="M331.337,191.666c0-1.033,0.319-1.797,0.957-2.294c0.533-0.413,1.183-0.62,1.948-0.62
			c0.852,0,1.548,0.251,2.089,0.753c0.54,0.502,0.811,1.196,0.811,2.082c0,0.717-0.119,1.282-0.358,1.693
			c-0.239,0.411-0.588,0.73-1.044,0.958c-0.457,0.228-0.956,0.341-1.497,0.341c-0.867,0-1.568-0.25-2.103-0.751
			C331.605,193.329,331.337,192.608,331.337,191.666z M332.417,191.666c0,0.714,0.174,1.249,0.52,1.604
			c0.346,0.355,0.782,0.533,1.307,0.533c0.521,0,0.955-0.179,1.301-0.536c0.347-0.357,0.52-0.901,0.52-1.633
			c0-0.69-0.174-1.212-0.522-1.567c-0.348-0.355-0.78-0.533-1.298-0.533c-0.524,0-0.961,0.177-1.307,0.53
			C332.59,190.419,332.417,190.952,332.417,191.666z"/>
		<path fill="#1B1C7E" d="M337.982,191.666c0-1.033,0.319-1.797,0.957-2.294c0.533-0.413,1.183-0.62,1.948-0.62
			c0.852,0,1.548,0.251,2.089,0.753c0.54,0.502,0.811,1.196,0.811,2.082c0,0.717-0.119,1.282-0.358,1.693
			c-0.239,0.411-0.588,0.73-1.044,0.958c-0.457,0.228-0.956,0.341-1.497,0.341c-0.867,0-1.568-0.25-2.103-0.751
			C338.25,193.329,337.982,192.608,337.982,191.666z M339.061,191.666c0,0.714,0.174,1.249,0.52,1.604
			c0.346,0.355,0.782,0.533,1.307,0.533c0.521,0,0.955-0.179,1.301-0.536c0.347-0.357,0.52-0.901,0.52-1.633
			c0-0.69-0.174-1.212-0.522-1.567c-0.348-0.355-0.78-0.533-1.298-0.533c-0.524,0-0.961,0.177-1.307,0.53
			C339.235,190.419,339.061,190.952,339.061,191.666z"/>
		<path fill="#1B1C7E" d="M344.996,194.454v-7.697h1.05v7.697H344.996z"/>
	</g>
</g>
</svg>
